<svg xmlns="http://www.w3.org/2000/svg" xmlns:xlink="http://www.w3.org/1999/xlink" width="500" zoomAndPan="magnify" viewBox="0 0 375 374.999991" height="500" preserveAspectRatio="xMidYMid meet" version="1.0"><defs><clipPath id="5c7ce2f96f"><path d="M 131.25 131.25 L 243.75 131.25 L 243.75 243.75 L 131.25 243.75 Z M 131.25 131.25 " clip-rule="nonzero"/></clipPath><clipPath id="7a1298cd64"><path d="M 187.5 131.25 C 156.433594 131.25 131.25 156.433594 131.25 187.5 C 131.25 218.566406 156.433594 243.75 187.5 243.75 C 218.566406 243.75 243.75 218.566406 243.75 187.5 C 243.75 156.433594 218.566406 131.25 187.5 131.25 Z M 187.5 131.25 " clip-rule="nonzero"/></clipPath></defs><g clip-path="url(#5c7ce2f96f)"><g clip-path="url(#7a1298cd64)"><path fill="#ffffff" d="M 131.25 131.25 L 243.75 131.25 L 243.75 243.75 L 131.25 243.75 Z M 131.25 131.25 " fill-opacity="1" fill-rule="nonzero"/></g></g><path fill="#5271ff" d="M 187.5 0.015625 C 83.945312 0.015625 0 83.960938 0 187.515625 C 0 237.101562 19.28125 282.15625 50.710938 315.6875 L 324.289062 315.6875 C 355.71875 282.15625 375 237.101562 375 187.515625 C 375 83.960938 291.054688 0.015625 187.5 0.015625 Z M 187.5 0.015625 " fill-opacity="1" fill-rule="nonzero"/><path fill="#f8d270" d="M 220.65625 280.8125 L 220.65625 246.398438 L 211.164062 244.367188 C 210.148438 240.1875 209.8125 235.671875 209.8125 231.265625 L 209.8125 195.679688 L 165.078125 195.679688 L 165.078125 231.265625 C 165.078125 235.671875 164.742188 240.1875 163.71875 244.367188 L 154.234375 246.398438 L 154.234375 280.8125 Z M 220.65625 280.8125 " fill-opacity="1" fill-rule="nonzero"/><path fill="#ededed" d="M 325 314.90625 C 290.78125 351.859375 241.796875 374.984375 187.5 374.984375 C 133.203125 374.984375 84.21875 351.859375 50 314.90625 C 58.671875 267.796875 97.8125 251.078125 148.828125 246.390625 C 151.328125 246.15625 153.984375 245.921875 156.640625 245.84375 C 157.1875 262.328125 170.859375 275.6875 187.421875 275.6875 C 205.070312 275.6875 218.28125 260.859375 218.28125 245.84375 C 220.859375 245.921875 223.59375 246.15625 226.09375 246.390625 C 277.1875 251.078125 316.328125 267.71875 325 314.90625 Z M 325 314.90625 " fill-opacity="1" fill-rule="nonzero"/><path fill="#fee29c" d="M 269.890625 147.828125 C 269.890625 148.484375 269.871094 149.136719 269.832031 149.789062 C 269.789062 150.445312 269.730469 151.089844 269.648438 151.734375 C 269.570312 152.378906 269.46875 153.011719 269.351562 153.640625 C 269.230469 154.269531 269.09375 154.886719 268.9375 155.492188 C 268.78125 156.097656 268.605469 156.6875 268.410156 157.265625 C 268.21875 157.84375 268.007812 158.40625 267.777344 158.953125 C 267.550781 159.496094 267.304688 160.023438 267.046875 160.53125 C 266.785156 161.039062 266.511719 161.523438 266.21875 161.988281 C 265.929688 162.449219 265.625 162.890625 265.308594 163.304688 C 264.992188 163.722656 264.664062 164.113281 264.320312 164.476562 C 263.980469 164.839844 263.628906 165.179688 263.265625 165.488281 C 262.90625 165.796875 262.535156 166.078125 262.15625 166.328125 C 261.777344 166.578125 261.390625 166.800781 260.996094 166.988281 C 260.605469 167.179688 260.207031 167.339844 259.804688 167.46875 C 259.402344 167.59375 258.996094 167.691406 258.585938 167.753906 C 258.179688 167.820312 257.769531 167.851562 257.359375 167.851562 C 256.949219 167.851562 256.539062 167.820312 256.132812 167.753906 C 255.722656 167.691406 255.316406 167.59375 254.914062 167.46875 C 254.511719 167.339844 254.113281 167.179688 253.722656 166.988281 C 253.328125 166.800781 252.941406 166.578125 252.5625 166.328125 C 252.183594 166.078125 251.8125 165.796875 251.453125 165.488281 C 251.089844 165.179688 250.738281 164.839844 250.398438 164.476562 C 250.054688 164.113281 249.726562 163.722656 249.410156 163.304688 C 249.09375 162.890625 248.789062 162.449219 248.5 161.988281 C 248.207031 161.523438 247.933594 161.039062 247.671875 160.53125 C 247.414062 160.023438 247.167969 159.496094 246.941406 158.953125 C 246.710938 158.40625 246.5 157.84375 246.308594 157.265625 C 246.113281 156.6875 245.9375 156.097656 245.78125 155.492188 C 245.625 154.886719 245.488281 154.269531 245.367188 153.640625 C 245.25 153.011719 245.148438 152.378906 245.070312 151.734375 C 244.988281 151.089844 244.929688 150.445312 244.886719 149.789062 C 244.847656 149.136719 244.828125 148.484375 244.828125 147.828125 C 244.828125 147.171875 244.847656 146.519531 244.886719 145.867188 C 244.929688 145.210938 244.988281 144.566406 245.070312 143.921875 C 245.148438 143.277344 245.25 142.644531 245.367188 142.015625 C 245.488281 141.386719 245.625 140.769531 245.78125 140.164062 C 245.9375 139.558594 246.113281 138.96875 246.308594 138.390625 C 246.5 137.8125 246.710938 137.25 246.941406 136.703125 C 247.167969 136.160156 247.414062 135.632812 247.671875 135.125 C 247.933594 134.617188 248.207031 134.132812 248.5 133.667969 C 248.789062 133.207031 249.09375 132.765625 249.410156 132.351562 C 249.726562 131.933594 250.054688 131.542969 250.398438 131.179688 C 250.738281 130.816406 251.089844 130.476562 251.453125 130.167969 C 251.8125 129.859375 252.183594 129.578125 252.5625 129.328125 C 252.941406 129.078125 253.328125 128.855469 253.722656 128.667969 C 254.113281 128.476562 254.511719 128.316406 254.914062 128.1875 C 255.316406 128.0625 255.722656 127.964844 256.132812 127.902344 C 256.539062 127.835938 256.949219 127.804688 257.359375 127.804688 C 257.769531 127.804688 258.179688 127.835938 258.585938 127.902344 C 258.996094 127.964844 259.402344 128.0625 259.804688 128.1875 C 260.207031 128.316406 260.605469 128.476562 260.996094 128.667969 C 261.390625 128.855469 261.777344 129.078125 262.15625 129.328125 C 262.535156 129.578125 262.90625 129.859375 263.265625 130.167969 C 263.628906 130.476562 263.980469 130.816406 264.320312 131.179688 C 264.664062 131.542969 264.992188 131.933594 265.308594 132.351562 C 265.625 132.765625 265.929688 133.207031 266.21875 133.667969 C 266.511719 134.132812 266.785156 134.617188 267.046875 135.125 C 267.304688 135.632812 267.550781 136.160156 267.777344 136.703125 C 268.007812 137.25 268.21875 137.8125 268.410156 138.390625 C 268.605469 138.96875 268.78125 139.558594 268.9375 140.164062 C 269.09375 140.769531 269.230469 141.386719 269.351562 142.015625 C 269.46875 142.644531 269.570312 143.277344 269.648438 143.921875 C 269.730469 144.566406 269.789062 145.210938 269.832031 145.867188 C 269.871094 146.519531 269.890625 147.171875 269.890625 147.828125 Z M 269.890625 147.828125 " fill-opacity="1" fill-rule="nonzero"/><path fill="#fee29c" d="M 130.132812 147.828125 C 130.132812 148.484375 130.113281 149.136719 130.074219 149.789062 C 130.03125 150.445312 129.972656 151.089844 129.890625 151.734375 C 129.8125 152.378906 129.710938 153.011719 129.59375 153.640625 C 129.472656 154.269531 129.335938 154.886719 129.179688 155.492188 C 129.023438 156.097656 128.847656 156.6875 128.652344 157.265625 C 128.460938 157.84375 128.25 158.40625 128.019531 158.953125 C 127.792969 159.496094 127.546875 160.023438 127.289062 160.53125 C 127.027344 161.039062 126.753906 161.523438 126.460938 161.988281 C 126.171875 162.449219 125.867188 162.890625 125.550781 163.304688 C 125.234375 163.722656 124.90625 164.113281 124.5625 164.476562 C 124.222656 164.839844 123.871094 165.179688 123.507812 165.488281 C 123.148438 165.796875 122.777344 166.078125 122.398438 166.328125 C 122.019531 166.578125 121.632812 166.800781 121.238281 166.988281 C 120.847656 167.179688 120.449219 167.339844 120.046875 167.46875 C 119.644531 167.59375 119.238281 167.691406 118.828125 167.753906 C 118.421875 167.820312 118.011719 167.851562 117.601562 167.851562 C 117.191406 167.851562 116.78125 167.820312 116.375 167.753906 C 115.964844 167.691406 115.558594 167.59375 115.15625 167.46875 C 114.753906 167.339844 114.355469 167.179688 113.964844 166.988281 C 113.570312 166.800781 113.183594 166.578125 112.804688 166.328125 C 112.425781 166.078125 112.054688 165.796875 111.695312 165.488281 C 111.332031 165.179688 110.980469 164.839844 110.640625 164.476562 C 110.296875 164.113281 109.96875 163.722656 109.652344 163.304688 C 109.335938 162.890625 109.03125 162.449219 108.742188 161.988281 C 108.449219 161.523438 108.175781 161.039062 107.914062 160.53125 C 107.65625 160.023438 107.410156 159.496094 107.183594 158.953125 C 106.953125 158.40625 106.742188 157.84375 106.550781 157.265625 C 106.355469 156.6875 106.179688 156.097656 106.023438 155.492188 C 105.867188 154.886719 105.730469 154.269531 105.609375 153.640625 C 105.492188 153.011719 105.390625 152.378906 105.3125 151.734375 C 105.230469 151.089844 105.171875 150.445312 105.128906 149.789062 C 105.089844 149.136719 105.070312 148.484375 105.070312 147.828125 C 105.070312 147.171875 105.089844 146.519531 105.128906 145.867188 C 105.171875 145.210938 105.230469 144.566406 105.3125 143.921875 C 105.390625 143.277344 105.492188 142.644531 105.609375 142.015625 C 105.730469 141.386719 105.867188 140.769531 106.023438 140.164062 C 106.179688 139.558594 106.355469 138.96875 106.550781 138.390625 C 106.742188 137.8125 106.953125 137.25 107.183594 136.703125 C 107.410156 136.160156 107.65625 135.632812 107.914062 135.125 C 108.175781 134.617188 108.449219 134.132812 108.742188 133.667969 C 109.03125 133.207031 109.335938 132.765625 109.652344 132.351562 C 109.96875 131.933594 110.296875 131.542969 110.640625 131.179688 C 110.980469 130.816406 111.332031 130.476562 111.695312 130.167969 C 112.054688 129.859375 112.425781 129.578125 112.804688 129.328125 C 113.183594 129.078125 113.570312 128.855469 113.964844 128.667969 C 114.355469 128.476562 114.753906 128.316406 115.15625 128.1875 C 115.558594 128.0625 115.964844 127.964844 116.375 127.902344 C 116.78125 127.835938 117.191406 127.804688 117.601562 127.804688 C 118.011719 127.804688 118.421875 127.835938 118.828125 127.902344 C 119.238281 127.964844 119.644531 128.0625 120.046875 128.1875 C 120.449219 128.316406 120.847656 128.476562 121.238281 128.667969 C 121.632812 128.855469 122.019531 129.078125 122.398438 129.328125 C 122.777344 129.578125 123.148438 129.859375 123.507812 130.167969 C 123.871094 130.476562 124.222656 130.816406 124.5625 131.179688 C 124.90625 131.542969 125.234375 131.933594 125.550781 132.351562 C 125.867188 132.765625 126.171875 133.207031 126.460938 133.667969 C 126.753906 134.132812 127.027344 134.617188 127.289062 135.125 C 127.546875 135.632812 127.792969 136.160156 128.019531 136.703125 C 128.25 137.25 128.460938 137.8125 128.652344 138.390625 C 128.847656 138.96875 129.023438 139.558594 129.179688 140.164062 C 129.335938 140.769531 129.472656 141.386719 129.59375 142.015625 C 129.710938 142.644531 129.8125 143.277344 129.890625 143.921875 C 129.972656 144.566406 130.03125 145.210938 130.074219 145.867188 C 130.113281 146.519531 130.132812 147.171875 130.132812 147.828125 Z M 130.132812 147.828125 " fill-opacity="1" fill-rule="nonzero"/><path fill="#fee29c" d="M 257.359375 152.875 C 257.359375 191.453125 226.101562 239.070312 187.523438 239.070312 C 148.9375 239.070312 117.601562 191.453125 117.601562 152.875 C 117.601562 114.296875 148.9375 83.039062 187.523438 83.039062 C 226.101562 83.039062 257.359375 114.289062 257.359375 152.875 Z M 257.359375 152.875 " fill-opacity="1" fill-rule="nonzero"/><path fill="#393a58" d="M 249.03125 136.640625 C 247.476562 126.742188 240.367188 122.179688 230.90625 125.460938 C 200.546875 135.984375 174.257812 129.539062 150.953125 108.023438 C 144.578125 102.132812 137.101562 103.984375 131.132812 112.6875 C 122.351562 125.492188 119.140625 139.828125 120.335938 155.21875 C 120.53125 157.71875 120.890625 160.210938 119.296875 164.085938 C 116.226562 160.539062 97.21875 125.445312 104.3125 92.773438 C 107.273438 79.125 115.085938 69.195312 130.25 67.21875 C 131.96875 66.992188 134.328125 66.171875 135.078125 64.867188 C 148.273438 41.867188 170.320312 39.085938 193.148438 40.828125 C 225.46875 43.296875 250.195312 58.976562 262.195312 89.757812 C 269.984375 109.734375 265.914062 130.5 259.015625 150.367188 C 257.71875 154.085938 254.859375 157.265625 252.726562 160.695312 C 251.757812 159.601562 250.101562 143.445312 249.03125 136.640625 Z M 249.03125 136.640625 " fill-opacity="1" fill-rule="nonzero"/><path fill="#393a58" d="M 218.28125 245.84375 C 218.28125 260.515625 205.40625 275.6875 187.421875 275.6875 C 170.859375 275.6875 157.1875 262.328125 156.640625 245.84375 C 153.984375 245.921875 151.328125 246.15625 148.828125 246.390625 C 149.546875 266.804688 166.445312 283.578125 187.421875 283.578125 C 208.484375 283.578125 225.382812 266.679688 226.09375 246.390625 C 223.59375 246.15625 220.859375 245.921875 218.28125 245.84375 Z M 218.28125 245.84375 " fill-opacity="1" fill-rule="nonzero"/></svg>