<svg xmlns="http://www.w3.org/2000/svg" xmlns:xlink="http://www.w3.org/1999/xlink" width="500" zoomAndPan="magnify" viewBox="0 0 375 275.999989" height="368" preserveAspectRatio="xMidYMid meet" version="1.0"><defs><clipPath id="b86f181be8"><path d="M 104.761719 29 L 270.511719 29 L 270.511719 173 L 104.761719 173 Z M 104.761719 29 " clip-rule="nonzero"/></clipPath></defs><path fill="#737373" d="M 373.019531 245.519531 C 372.941406 242.203125 371.992188 238.992188 370.28125 236.183594 C 369.878906 235.53125 369.441406 234.890625 368.964844 234.292969 L 342.136719 200.289062 C 339.894531 197.433594 336.472656 195.773438 332.835938 195.773438 L 333.203125 195.773438 L 333.203125 155.273438 L 314.589844 155.273438 L 314.589844 170.582031 C 314.589844 176.433594 309.84375 181.179688 303.988281 181.179688 L 60.027344 181.179688 C 54.167969 181.179688 49.417969 176.433594 49.417969 170.582031 L 49.417969 155.273438 L 32.757812 155.273438 L 32.757812 195.773438 L 5.914062 230.617188 C 4.085938 232.984375 2.839844 235.714844 2.238281 238.585938 L 2.238281 238.59375 C 1.71875 241.109375 1.6875 243.730469 2.199219 246.308594 C 6.417969 267.539062 21.925781 273.8125 42.070312 273.949219 L 333.207031 273.949219 C 366.714844 272.765625 373.355469 260.566406 373.019531 245.519531 Z M 101.875 195.773438 L 313.960938 195.773438 L 323.121094 208.289062 L 331.035156 219.09375 L 335.625 225.363281 C 337.648438 228.136719 335.671875 232.035156 332.238281 232.035156 L 40.277344 232.035156 C 37.59375 232.035156 35.960938 229.070312 37.398438 226.804688 L 42.289062 219.09375 L 42.296875 219.09375 L 49.152344 208.289062 L 57.097656 195.773438 Z M 101.875 195.773438 " fill-opacity="1" fill-rule="nonzero"/><path fill="#a6a6a6" d="M 245.339844 137.039062 C 245.339844 143.628906 250.679688 148.96875 257.265625 148.96875 C 263.855469 148.96875 269.195312 143.628906 269.195312 137.039062 C 269.195312 130.445312 263.855469 125.105469 257.265625 125.105469 C 250.6875 125.101562 245.339844 130.445312 245.339844 137.039062 Z M 245.339844 137.039062 " fill-opacity="1" fill-rule="nonzero"/><path fill="#a6a6a6" d="M 83.554688 137.039062 C 83.554688 143.628906 88.886719 148.96875 95.476562 148.96875 C 102.070312 148.96875 107.410156 143.628906 107.410156 137.039062 C 107.410156 130.445312 102.070312 125.105469 95.476562 125.105469 C 88.886719 125.101562 83.554688 130.445312 83.554688 137.039062 Z M 83.554688 137.039062 " fill-opacity="1" fill-rule="nonzero"/><path fill="#a6a6a6" d="M 172.335938 147.6875 C 178.425781 150.636719 185.59375 150.472656 191.511719 147.210938 C 196.34375 144.546875 200.199219 141.132812 203.140625 137.039062 C 188.421875 125.527344 173.703125 125.527344 158.976562 137.039062 C 162.679688 141.734375 167.195312 145.191406 172.335938 147.6875 Z M 172.335938 147.6875 " fill-opacity="1" fill-rule="nonzero"/><path fill="#a6a6a6" d="M 335.617188 225.363281 L 331.027344 219.09375 L 323.113281 208.289062 L 313.953125 195.773438 L 57.09375 195.773438 L 49.148438 208.289062 L 42.292969 219.09375 L 42.285156 219.09375 L 37.394531 226.804688 C 35.957031 229.074219 37.589844 232.035156 40.273438 232.035156 L 332.234375 232.035156 C 335.664062 232.039062 337.640625 228.136719 335.617188 225.363281 Z M 335.617188 225.363281 " fill-opacity="1" fill-rule="nonzero"/><path fill="#a6a6a6" d="M 49.417969 28.332031 C 49.417969 22.472656 54.167969 17.726562 60.027344 17.726562 L 303.988281 17.726562 C 309.84375 17.726562 314.589844 22.472656 314.589844 28.332031 L 314.589844 155.273438 L 333.203125 155.273438 L 333.203125 22.136719 C 333.203125 10.851562 324.058594 1.707031 312.773438 1.707031 L 56.324219 1.707031 C 43.304688 1.707031 32.753906 12.261719 32.753906 25.28125 L 32.753906 155.273438 L 49.414062 155.273438 L 49.414062 28.332031 Z M 49.417969 28.332031 " fill-opacity="1" fill-rule="nonzero"/><path fill="#242424" d="M 314.589844 155.273438 L 314.589844 170.582031 C 314.589844 176.433594 309.84375 181.179688 303.988281 181.179688 L 60.027344 181.179688 C 54.167969 181.179688 49.417969 176.433594 49.417969 170.582031 L 49.417969 28.332031 C 49.417969 22.472656 54.167969 17.726562 60.027344 17.726562 L 303.988281 17.726562 C 309.84375 17.726562 314.589844 22.472656 314.589844 28.332031 Z M 314.589844 155.273438 " fill-opacity="1" fill-rule="nonzero"/><path fill="#242424" d="M 374.695312 245.480469 C 374.613281 241.898438 373.582031 238.382812 371.707031 235.304688 C 371.242188 234.546875 370.773438 233.871094 370.28125 233.25 L 343.453125 199.25 C 341.308594 196.515625 338.253906 194.761719 334.878906 194.253906 L 334.878906 22.136719 C 334.878906 9.949219 324.964844 0.0351562 312.773438 0.0351562 L 56.324219 0.0351562 C 42.40625 0.0351562 31.078125 11.359375 31.078125 25.28125 L 31.078125 195.207031 L 4.582031 229.597656 C 2.628906 232.132812 1.25 235.121094 0.59375 238.242188 L 1.457031 238.425781 L 1.445312 238.433594 L 0.589844 238.257812 C 0.0117188 241.050781 -0.00390625 243.867188 0.542969 246.632812 C 4.441406 266.25 17.628906 275.457031 42.058594 275.625 L 333.253906 275.625 C 370.550781 274.308594 374.988281 258.824219 374.695312 245.480469 Z M 34.429688 156.949219 L 47.746094 156.949219 L 47.746094 170.578125 C 47.746094 177.34375 53.253906 182.851562 60.027344 182.851562 L 303.988281 182.851562 C 310.757812 182.851562 316.261719 177.34375 316.261719 170.578125 L 316.261719 156.949219 L 331.261719 156.949219 L 331.261719 153.601562 L 316.261719 153.601562 L 316.261719 28.332031 C 316.261719 21.5625 310.757812 16.050781 303.988281 16.050781 L 60.027344 16.050781 C 53.253906 16.050781 47.746094 21.5625 47.746094 28.332031 L 47.746094 153.597656 L 34.429688 153.597656 L 34.429688 25.28125 C 34.429688 13.207031 44.253906 3.386719 56.324219 3.386719 L 312.769531 3.386719 C 323.113281 3.386719 331.527344 11.800781 331.527344 22.140625 L 331.527344 194.105469 L 34.429688 194.105469 Z M 51.09375 170.582031 L 51.09375 28.332031 C 51.09375 23.410156 55.101562 19.398438 60.027344 19.398438 L 303.988281 19.398438 C 308.910156 19.398438 312.914062 23.410156 312.914062 28.332031 L 312.914062 170.578125 C 312.914062 175.496094 308.910156 179.503906 303.988281 179.503906 L 60.027344 179.503906 C 55.097656 179.503906 51.09375 175.503906 51.09375 170.582031 Z M 98.214844 206.617188 L 102.898438 197.449219 L 129.679688 197.449219 L 126.871094 206.617188 Z M 105.195312 209.96875 L 102.324219 217.421875 L 72.855469 217.421875 L 76.390625 209.96875 Z M 94.453125 206.617188 L 52.195312 206.617188 L 58.015625 197.449219 L 99.136719 197.449219 Z M 72.683594 209.96875 L 69.148438 217.421875 L 45.335938 217.421875 L 50.070312 209.96875 Z M 80.308594 220.769531 L 75.566406 230.367188 L 40.273438 230.367188 C 39.347656 230.367188 38.902344 229.738281 38.753906 229.46875 C 38.605469 229.195312 38.316406 228.488281 38.8125 227.703125 L 43.207031 220.769531 Z M 84.042969 220.769531 L 114.828125 220.769531 L 111.269531 230.367188 L 79.300781 230.367188 Z M 105.914062 217.417969 L 108.785156 209.964844 L 137.445312 209.964844 L 135.453125 217.417969 Z M 130.371094 206.617188 L 133.179688 197.449219 L 158.304688 197.449219 L 156.195312 206.617188 Z M 118.398438 220.769531 L 145.578125 220.769531 L 143.6875 230.367188 L 114.839844 230.367188 Z M 138.925781 217.417969 L 140.914062 209.964844 L 167.171875 209.964844 L 166.289062 217.417969 Z M 159.636719 206.617188 L 161.746094 197.449219 L 185.757812 197.449219 L 185.757812 206.617188 Z M 148.996094 220.769531 L 178.246094 220.769531 L 178.246094 230.367188 L 147.105469 230.367188 Z M 169.660156 217.417969 L 170.542969 209.964844 L 198.273438 209.964844 L 199.15625 217.417969 Z M 189.109375 206.617188 L 189.109375 197.449219 L 216.875 197.449219 L 218.28125 206.617188 Z M 181.597656 220.769531 L 213.117188 220.769531 L 213.117188 230.367188 L 181.597656 230.367188 Z M 202.527344 217.417969 L 201.644531 209.964844 L 229.179688 209.964844 L 231.167969 217.417969 Z M 220.265625 197.449219 L 246.464844 197.449219 L 249.042969 206.617188 L 221.667969 206.617188 Z M 216.464844 220.769531 L 241.777344 220.769531 L 245.332031 230.367188 L 216.464844 230.367188 Z M 234.632812 217.417969 L 232.644531 209.964844 L 258.492188 209.964844 L 261.800781 217.417969 Z M 252.523438 206.617188 L 249.949219 197.449219 L 276.527344 197.449219 L 281.921875 206.617188 Z M 287.773438 209.96875 L 292.625 217.421875 L 265.464844 217.421875 L 262.152344 209.96875 Z M 272.410156 220.769531 L 278.574219 230.367188 L 248.902344 230.367188 L 245.34375 220.769531 Z M 276.390625 220.769531 L 298.382812 220.769531 L 305.25 230.367188 L 282.554688 230.367188 Z M 302.5 220.769531 L 330.175781 220.769531 L 334.265625 226.355469 C 334.835938 227.140625 334.917969 228.125 334.480469 228.992188 C 334.042969 229.855469 333.203125 230.371094 332.234375 230.371094 L 309.375 230.371094 Z M 296.625 217.417969 L 291.773438 209.964844 L 322.265625 209.964844 L 327.71875 217.417969 Z M 285.804688 206.617188 L 280.414062 197.449219 L 313.101562 197.449219 L 319.8125 206.617188 Z M 7.234375 231.636719 L 33.578125 197.449219 L 54.050781 197.449219 L 48.230469 206.617188 L 48.089844 206.617188 L 48.089844 206.839844 L 40.878906 218.191406 L 42.289062 219.089844 L 42.289062 219.09375 L 40.867188 218.191406 L 35.980469 225.90625 C 34.972656 227.496094 34.910156 229.425781 35.816406 231.078125 C 36.726562 232.726562 38.390625 233.710938 40.273438 233.710938 L 332.230469 233.710938 C 334.453125 233.710938 336.457031 232.480469 337.464844 230.5 C 338.472656 228.515625 338.277344 226.167969 336.96875 224.371094 L 324.347656 207.128906 L 324.347656 206.613281 L 323.96875 206.613281 L 317.253906 197.445312 L 332.835938 197.445312 C 335.980469 197.445312 338.886719 198.855469 340.824219 201.320312 L 367.65625 235.324219 C 367.851562 235.574219 368.046875 235.835938 368.234375 236.105469 C 362.472656 243.394531 352.769531 246.796875 338.582031 246.507812 L 220.183594 246.507812 L 219.882812 247.804688 C 218.773438 252.550781 216.453125 255.1875 212.140625 256.59375 L 155.722656 256.59375 C 150.8125 255.933594 147.820312 253.453125 146.332031 248.796875 L 145.960938 247.632812 L 34.054688 247.632812 C 23.753906 247.722656 12.210938 246.628906 4.070312 238.101562 C 4.679688 235.777344 5.761719 233.554688 7.234375 231.636719 Z M 333.203125 272.269531 L 42.078125 272.269531 C 19.214844 272.117188 7.421875 264.011719 3.835938 245.980469 C 3.589844 244.746094 3.484375 243.496094 3.507812 242.246094 C 8.589844 246.800781 16.996094 251.105469 34.070312 250.984375 L 143.558594 250.984375 C 145.601562 256.179688 149.585938 259.1875 155.40625 259.933594 L 212.65625 259.945312 L 212.898438 259.867188 C 219.4375 257.84375 221.757812 253.453125 222.804688 249.859375 L 338.542969 249.859375 C 353.152344 250.15625 363.464844 246.683594 369.972656 239.253906 C 370.820312 241.246094 371.292969 243.382812 371.34375 245.554688 C 371.625 258.09375 367.304688 271.070312 333.203125 272.269531 Z M 333.203125 272.269531 " fill-opacity="1" fill-rule="nonzero"/><path fill="#04d0f4" d="M 202.269531 100.851562 C 202.269531 92.941406 195.65625 86.523438 187.496094 86.523438 C 179.335938 86.523438 172.71875 92.941406 172.71875 100.851562 C 172.71875 108.765625 179.335938 115.179688 187.496094 115.179688 C 195.65625 115.179688 202.269531 108.765625 202.269531 100.851562 Z M 202.269531 100.851562 " fill-opacity="1" fill-rule="nonzero"/><g clip-path="url(#b86f181be8)"><path fill="#04d0f4" d="M 235.480469 74.253906 C 238.601562 61.960938 242.523438 39.164062 228.699219 31.433594 C 214.9375 23.738281 197.027344 38.484375 187.570312 47.335938 C 178.140625 38.570312 159.730469 23.890625 145.914062 31.644531 C 132.160156 39.363281 136.402344 61.785156 139.589844 74.15625 C 126.757812 77.6875 104.761719 85.300781 104.761719 100.851562 C 104.761719 116.359375 126.734375 124.640625 139.492188 128.171875 C 136.289062 140.609375 132.261719 162.710938 146.035156 170.414062 C 159.902344 178.164062 178.253906 163.832031 187.800781 154.882812 C 197.316406 163.789062 215.054688 178.214844 228.820312 170.488281 C 242.625 162.738281 239.03125 140.246094 235.839844 127.804688 C 248.207031 124.265625 270.230469 116.164062 270.230469 100.851562 C 270.230469 85.449219 248.113281 77.777344 235.480469 74.253906 Z M 233.914062 121.210938 C 231.820312 114.78125 228.992188 107.945312 225.535156 100.886719 C 228.835938 93.992188 231.554688 87.242188 233.589844 80.855469 C 242.847656 83.460938 263.160156 89.410156 263.160156 100.851562 C 263.160156 112.402344 243.667969 118.40625 233.914062 121.210938 Z M 225.277344 164.558594 C 215.007812 170.320312 199.75 156.523438 192.722656 149.96875 C 197.386719 145.023438 202.042969 139.273438 206.59375 132.890625 C 214.59375 132.203125 222.148438 131.078125 229.003906 129.542969 C 231.246094 138.34375 235.589844 158.769531 225.277344 164.558594 Z M 149.566406 164.476562 C 139.296875 158.734375 143.988281 139.011719 146.34375 129.847656 C 153.121094 131.304688 160.625 132.347656 168.644531 132.980469 C 173.222656 139.226562 178.015625 144.964844 182.847656 149.996094 C 176.878906 155.59375 159.886719 170.242188 149.566406 164.476562 Z M 111.828125 100.851562 C 111.828125 89.257812 132.019531 83.351562 141.488281 80.757812 C 143.558594 87.285156 146.277344 94.113281 149.554688 101.019531 C 146.234375 108.027344 143.476562 114.960938 141.386719 121.570312 C 132.359375 119.0625 111.828125 112.453125 111.828125 100.851562 Z M 149.457031 37.574219 C 159.769531 31.785156 175.773438 45.882812 182.617188 52.226562 C 177.8125 57.230469 173.058594 62.929688 168.523438 69.140625 C 160.738281 69.839844 153.289062 70.960938 146.441406 72.46875 C 143.871094 62.488281 139.15625 43.355469 149.457031 37.574219 Z M 211.648438 76.589844 C 216.929688 77.234375 221.988281 78.09375 226.734375 79.144531 C 225.308594 83.578125 223.535156 88.210938 221.441406 92.960938 C 218.40625 87.378906 215.148438 81.910156 211.648438 76.589844 Z M 187.574219 57.125 C 190.832031 60.550781 194.097656 64.375 197.3125 68.523438 C 190.796875 68.222656 184.269531 68.222656 177.753906 68.519531 C 180.96875 64.40625 184.261719 60.589844 187.574219 57.125 Z M 153.609375 92.957031 C 151.550781 88.222656 149.789062 83.566406 148.351562 79.074219 C 153.070312 78.050781 158.105469 77.210938 163.351562 76.578125 C 159.84375 81.886719 156.589844 87.351562 153.609375 92.957031 Z M 163.503906 125.617188 C 158.085938 125.027344 152.972656 124.234375 148.253906 123.238281 C 149.714844 118.664062 151.515625 113.910156 153.617188 109.074219 C 156.640625 114.738281 159.941406 120.257812 163.503906 125.617188 Z M 187.769531 145.0625 C 184.417969 141.558594 181.078125 137.679688 177.8125 133.511719 C 184.367188 133.761719 190.929688 133.761719 197.484375 133.476562 C 194.261719 137.722656 191.007812 141.605469 187.769531 145.0625 Z M 221.507812 108.828125 C 223.71875 113.714844 225.582031 118.445312 227.0625 122.941406 C 222.265625 124.003906 217.085938 124.859375 211.628906 125.492188 C 215.15625 120.074219 218.464844 114.515625 221.507812 108.828125 Z M 202.648438 126.324219 C 192.625 127.019531 182.539062 127.011719 172.511719 126.378906 C 166.816406 118.3125 161.742188 109.824219 157.367188 101.015625 C 161.722656 92.226562 166.757812 83.753906 172.429688 75.699219 C 182.460938 74.964844 192.554688 74.960938 202.589844 75.703125 C 208.210938 83.757812 213.238281 92.207031 217.695312 100.917969 C 213.292969 109.707031 208.230469 118.191406 202.648438 126.324219 Z M 225.167969 37.371094 C 235.484375 43.140625 230.890625 63.628906 228.636719 72.539062 C 221.773438 71.003906 214.320312 69.859375 206.515625 69.148438 C 201.964844 62.871094 197.253906 57.164062 192.527344 52.222656 C 199.460938 45.742188 214.953125 31.65625 225.167969 37.371094 Z M 225.167969 37.371094 " fill-opacity="1" fill-rule="evenodd"/></g></svg>