<svg xmlns="http://www.w3.org/2000/svg" xmlns:xlink="http://www.w3.org/1999/xlink" width="438" zoomAndPan="magnify" viewBox="0 0 328.5 374.999991" height="500" preserveAspectRatio="xMidYMid meet" version="1.0"><defs><clipPath id="83a40af70c"><path d="M 0 0.285156 L 328 0.285156 L 328 374 L 0 374 Z M 0 0.285156 " clip-rule="nonzero"/></clipPath><clipPath id="929f81f7d6"><path d="M 34 36 L 295 36 L 295 197 L 34 197 Z M 34 36 " clip-rule="nonzero"/></clipPath><clipPath id="3015becc77"><path d="M 174.855469 36.570312 L 294.976562 116.648438 L 154.835938 196.726562 L 34.71875 116.648438 Z M 174.855469 36.570312 " clip-rule="nonzero"/></clipPath><linearGradient x1="15.103625" gradientTransform="matrix(10.009868, 0, 0, 10.009868, -124.448406, -138.642573)" y1="22.962957" x2="42.848743" gradientUnits="userSpaceOnUse" y2="27.015614" id="adb7ff32b7"><stop stop-opacity="1" stop-color="rgb(90.19928%, 73.298645%, 48.599243%)" offset="0"/><stop stop-opacity="1" stop-color="rgb(90.174866%, 73.254395%, 48.471069%)" offset="0.0824742"/><stop stop-opacity="1" stop-color="rgb(90.151978%, 73.210144%, 48.342896%)" offset="0.25"/><stop stop-opacity="1" stop-color="rgb(90.119934%, 73.150635%, 48.175049%)" offset="0.28125"/><stop stop-opacity="1" stop-color="rgb(90.057373%, 73.033142%, 47.839355%)" offset="0.3125"/><stop stop-opacity="1" stop-color="rgb(89.994812%, 72.917175%, 47.503662%)" offset="0.34375"/><stop stop-opacity="1" stop-color="rgb(89.932251%, 72.799683%, 47.169495%)" offset="0.375"/><stop stop-opacity="1" stop-color="rgb(89.86969%, 72.683716%, 46.833801%)" offset="0.40625"/><stop stop-opacity="1" stop-color="rgb(89.807129%, 72.566223%, 46.498108%)" offset="0.4375"/><stop stop-opacity="1" stop-color="rgb(89.746094%, 72.44873%, 46.16394%)" offset="0.46875"/><stop stop-opacity="1" stop-color="rgb(89.683533%, 72.332764%, 45.828247%)" offset="0.5"/><stop stop-opacity="1" stop-color="rgb(89.620972%, 72.215271%, 45.49408%)" offset="0.53125"/><stop stop-opacity="1" stop-color="rgb(89.558411%, 72.097778%, 45.158386%)" offset="0.5625"/><stop stop-opacity="1" stop-color="rgb(89.49585%, 71.981812%, 44.822693%)" offset="0.59375"/><stop stop-opacity="1" stop-color="rgb(89.433289%, 71.864319%, 44.488525%)" offset="0.625"/><stop stop-opacity="1" stop-color="rgb(89.401245%, 71.801758%, 44.309998%)" offset="0.75"/><stop stop-opacity="1" stop-color="rgb(89.399719%, 71.798706%, 44.299316%)" offset="0.917526"/><stop stop-opacity="1" stop-color="rgb(89.399719%, 71.798706%, 44.299316%)" offset="1"/></linearGradient></defs><g clip-path="url(#83a40af70c)"><path fill="#343941" d="M 174.457031 0.0546875 C 172.3125 0.339844 170.25 1.066406 168.398438 2.191406 L 8.773438 93.40625 C 3.929688 96.199219 0.941406 101.359375 0.933594 106.945312 L 0.933594 266.574219 C 0.914062 271.894531 3.597656 276.859375 8.058594 279.757812 L 144.882812 370.972656 C 149.84375 374.167969 156.179688 374.308594 161.273438 371.328125 L 320.898438 280.113281 C 325.742188 277.320312 328.726562 272.160156 328.738281 266.574219 L 328.738281 106.945312 C 328.757812 101.628906 326.070312 96.664062 321.613281 93.761719 L 184.789062 2.546875 C 181.742188 0.539062 178.085938 -0.34375 174.457031 0.0546875 Z M 174.457031 0.0546875 " fill-opacity="1" fill-rule="nonzero"/></g><path fill="#b06e36" d="M 34.71875 116.648438 L 154.835938 196.726562 L 154.835938 336.867188 L 34.71875 256.789062 Z M 34.71875 116.648438 " fill-opacity="1" fill-rule="nonzero"/><g clip-path="url(#929f81f7d6)"><g clip-path="url(#3015becc77)"><path fill="url(#adb7ff32b7)" d="M 34.71875 36.570312 L 34.71875 196.726562 L 294.976562 196.726562 L 294.976562 36.570312 Z M 34.71875 36.570312 " fill-rule="nonzero"/></g></g><path fill="#d49b4c" d="M 294.976562 116.648438 L 294.976562 256.789062 L 154.835938 336.867188 L 154.835938 196.726562 Z M 294.976562 116.648438 " fill-opacity="1" fill-rule="nonzero"/></svg>